<svg width="10" height="7" viewBox="0 0 10 7" fill="none" xmlns="http://www.w3.org/2000/svg">
<path d="M0.487305 1.3526C0.487305 1.05811 0.604287 0.775693 0.812518 0.567462C1.02075 0.359231 1.30317 0.242249 1.59765 0.242249H8.25974C8.55422 0.242249 8.83664 0.359231 9.04488 0.567462C9.25311 0.775693 9.37009 1.05811 9.37009 1.3526V5.79399C9.37009 6.08847 9.25311 6.37089 9.04488 6.57912C8.83664 6.78735 8.55422 6.90434 8.25974 6.90434H1.59765C1.30317 6.90434 1.02075 6.78735 0.812518 6.57912C0.604287 6.37089 0.487305 6.08847 0.487305 5.79399V1.3526ZM1.59765 0.797423C1.45041 0.797423 1.3092 0.855914 1.20509 0.960029C1.10097 1.06414 1.04248 1.20536 1.04248 1.3526V1.90777H8.81491V1.3526C8.81491 1.20536 8.75642 1.06414 8.65231 0.960029C8.54819 0.855914 8.40698 0.797423 8.25974 0.797423H1.59765ZM8.81491 3.01812H1.04248V5.79399C1.04248 5.94123 1.10097 6.08244 1.20509 6.18656C1.3092 6.29067 1.45041 6.34916 1.59765 6.34916H8.25974C8.40698 6.34916 8.54819 6.29067 8.65231 6.18656C8.75642 6.08244 8.81491 5.94123 8.81491 5.79399V3.01812Z" fill="#10564E"/>
</svg>
