<svg width="6" height="8" viewBox="0 0 6 8" fill="none" xmlns="http://www.w3.org/2000/svg">
<path d="M3.10616 0.739929C2.12657 0.739929 1.32961 1.53689 1.32961 2.51649V3.58242H0.974295C0.582386 3.58242 0.263672 3.90113 0.263672 4.29304V7.13553C0.263672 7.52744 0.582386 7.84616 0.974295 7.84616H5.23803C5.62994 7.84616 5.94865 7.52744 5.94865 7.13553V4.29304C5.94865 3.90113 5.62994 3.58242 5.23803 3.58242H4.88272V2.51649C4.88272 1.53689 4.08576 0.739929 3.10616 0.739929ZM5.23803 4.29304L5.23874 7.13553H0.974295V4.29304H5.23803ZM2.04023 3.58242V2.51649C2.04023 1.9288 2.51848 1.45055 3.10616 1.45055C3.69385 1.45055 4.1721 1.9288 4.1721 2.51649V3.58242H2.04023Z" fill="#051023"/>
</svg>
