<svg width="9" height="7" viewBox="0 0 9 7" fill="none" xmlns="http://www.w3.org/2000/svg">
<path d="M8.95388 1.15924V3.37994C8.95388 3.49037 8.91001 3.59627 8.83192 3.67436C8.75384 3.75245 8.64793 3.79632 8.5375 3.79632C8.42707 3.79632 8.32116 3.75245 8.24307 3.67436C8.16499 3.59627 8.12112 3.49037 8.12112 3.37994V2.16549L5.50139 4.78522C5.46271 4.82404 5.41674 4.85484 5.36613 4.87585C5.31552 4.89687 5.26125 4.90769 5.20645 4.90769C5.15165 4.90769 5.09739 4.89687 5.04678 4.87585C4.99617 4.85484 4.9502 4.82404 4.91152 4.78522L3.81852 3.69222L1.61517 5.89557C1.5366 5.97312 1.43064 6.01661 1.32023 6.01661C1.20983 6.01661 1.10387 5.97312 1.0253 5.89557C0.986481 5.85688 0.955681 5.81092 0.934666 5.76031C0.91365 5.7097 0.902832 5.65543 0.902832 5.60063C0.902832 5.54583 0.91365 5.49157 0.934666 5.44096C0.955681 5.39034 0.986481 5.34438 1.0253 5.3057L3.52358 2.80741C3.56227 2.76859 3.60823 2.73779 3.65884 2.71678C3.70945 2.69576 3.76372 2.68495 3.81852 2.68495C3.87332 2.68495 3.92758 2.69576 3.97819 2.71678C4.02881 2.73779 4.07477 2.76859 4.11345 2.80741L5.20645 3.90041L7.53124 1.57562H6.3168C6.20637 1.57562 6.10046 1.53175 6.02238 1.45366C5.94429 1.37558 5.90042 1.26967 5.90042 1.15924C5.90042 1.04881 5.94429 0.9429 6.02238 0.864814C6.10046 0.786727 6.20637 0.742859 6.3168 0.742859H8.5375C8.64793 0.742859 8.75384 0.786727 8.83192 0.864814C8.91001 0.9429 8.95388 1.04881 8.95388 1.15924Z" fill="#8B6B2E"/>
</svg>
