<svg width="9" height="7" viewBox="0 0 9 7" fill="none" xmlns="http://www.w3.org/2000/svg">
<path d="M8.95358 3.47721V5.69791C8.95358 5.80834 8.90971 5.91425 8.83162 5.99234C8.75354 6.07042 8.64763 6.11429 8.5372 6.11429H6.3165C6.20607 6.11429 6.10016 6.07042 6.02208 5.99234C5.94399 5.91425 5.90012 5.80834 5.90012 5.69791C5.90012 5.58748 5.94399 5.48157 6.02208 5.40348C6.10016 5.3254 6.20607 5.28153 6.3165 5.28153H7.53094L5.20615 2.95674L4.11315 4.04974C4.07447 4.08856 4.02851 4.11936 3.97789 4.14037C3.92728 4.16139 3.87302 4.1722 3.81822 4.1722C3.76342 4.1722 3.70915 4.16139 3.65854 4.14037C3.60793 4.11936 3.56196 4.08856 3.52328 4.04974L1.025 1.55146C0.946777 1.47323 0.902832 1.36714 0.902832 1.25652C0.902832 1.1459 0.946777 1.03981 1.025 0.961583C1.10322 0.883361 1.20931 0.839417 1.31993 0.839417C1.43056 0.839417 1.53665 0.883361 1.61487 0.961583L3.81822 3.16493L4.91122 2.07193C4.9499 2.03311 4.99587 2.00231 5.04648 1.9813C5.09709 1.96028 5.15135 1.94946 5.20615 1.94946C5.26095 1.94946 5.31522 1.96028 5.36583 1.9813C5.41644 2.00231 5.46241 2.03311 5.50109 2.07193L8.12082 4.69166V3.47721C8.12082 3.36678 8.16468 3.26088 8.24277 3.18279C8.32086 3.1047 8.42677 3.06083 8.5372 3.06083C8.64763 3.06083 8.75354 3.1047 8.83162 3.18279C8.90971 3.26088 8.95358 3.36678 8.95358 3.47721Z" fill="#953C26"/>
</svg>
